<svg width="18" height="19" viewBox="0 0 18 19" fill="none" xmlns="http://www.w3.org/2000/svg">
<path d="M10.5 8C10.5 7.58578 10.1642 7.25 9.75 7.25H9.375C7.09682 7.25 5.25 9.0968 5.25 11.375C5.25 13.6532 7.09682 15.5 9.375 15.5H13.125C15.4032 15.5 17.25 13.6532 17.25 11.375C17.25 9.50683 16.0081 7.92866 14.3047 7.42117C13.8823 7.29532 13.5 7.64665 13.5 8.08745V8.12622C13.5 8.49942 13.7809 8.80513 14.1259 8.94755C15.0791 9.341 15.75 10.2796 15.75 11.375C15.75 12.8248 14.5747 14 13.125 14H9.375C7.92525 14 6.75 12.8248 6.75 11.375C6.75 9.92525 7.92525 8.75 9.375 8.75H9.75C10.1642 8.75 10.5 8.41423 10.5 8Z" fill="#1A202C" stroke="#1A202C" stroke-width="0.5"/>
<path d="M8.625 3.5C10.9032 3.5 12.75 5.34682 12.75 7.625C12.75 9.9032 10.9032 11.75 8.625 11.75H8.25C7.83577 11.75 7.5 11.4142 7.5 11C7.5 10.5858 7.83577 10.25 8.25 10.25H8.625C10.0747 10.25 11.25 9.07475 11.25 7.625C11.25 6.17525 10.0747 5 8.625 5H4.875C3.42525 5 2.25 6.17525 2.25 7.625C2.25 8.72038 2.92088 9.659 3.87415 10.0525C4.21911 10.1948 4.5 10.5006 4.5 10.8738V10.9126C4.5 11.3533 4.11768 11.7047 3.69524 11.5789C1.99194 11.0713 0.75 9.49318 0.75 7.625C0.75 5.34682 2.59682 3.5 4.875 3.5H8.625Z" fill="#1A202C" stroke="#1A202C" stroke-width="0.5"/>
</svg>
