<svg width="20" height="20" viewBox="0 0 20 20" fill="none" xmlns="http://www.w3.org/2000/svg">
<g clip-path="url(#clip0_3627_6466)">
<path d="M7.34284 1.66602L4.32617 4.69102M12.6595 1.66602L15.6762 4.69102" stroke="#111111" stroke-width="1.5" stroke-miterlimit="10" stroke-linecap="round" stroke-linejoin="round"/>
<path d="M1.66602 6.54167C1.66602 5 2.49102 4.875 3.51602 4.875H16.4827C17.5077 4.875 18.3327 5 18.3327 6.54167C18.3327 8.33333 17.5077 8.20833 16.4827 8.20833H3.51602C2.49102 8.20833 1.66602 8.33333 1.66602 6.54167Z" stroke="#111111" stroke-width="1.5"/>
<path d="M8.13268 11.6615V14.6198M11.966 11.6615V14.6198M2.91602 8.32812L4.09102 15.5281C4.35768 17.1448 4.99935 18.3281 7.38268 18.3281H12.4077C14.9993 18.3281 15.3827 17.1948 15.6827 15.6281L17.0827 8.32812" stroke="#111111" stroke-width="1.5" stroke-linecap="round"/>
</g>
<defs>
<clipPath id="clip0_3627_6466">
<rect width="20" height="20" rx="4" fill="white"/>
</clipPath>
</defs>
</svg>
