<svg width="26" height="26" viewBox="0 0 26 26" fill="none" xmlns="http://www.w3.org/2000/svg">
<path d="M11.918 2.15625H9.7513C4.33464 2.15625 2.16797 4.32292 2.16797 9.73958V16.2396C2.16797 21.6562 4.33464 23.8229 9.7513 23.8229H16.2513C21.668 23.8229 23.8346 21.6562 23.8346 16.2396V14.0729" stroke="#111111" stroke-width="1.5" stroke-linecap="round" stroke-linejoin="round"/>
<path d="M17.377 3.27756L8.84036 11.8142C8.51536 12.1392 8.19036 12.7784 8.12536 13.2442L7.65952 16.5051C7.48619 17.6859 8.32036 18.5092 9.50119 18.3467L12.762 17.8809C13.217 17.8159 13.8562 17.4909 14.192 17.1659L22.7287 8.62922C24.202 7.15589 24.8954 5.44422 22.7287 3.27756C20.562 1.11089 18.8504 1.80422 17.377 3.27756Z" stroke="#111111" stroke-width="1.5" stroke-miterlimit="10" stroke-linecap="round" stroke-linejoin="round"/>
<path d="M16.1543 4.48633C16.5135 5.76192 17.1943 6.9239 18.1313 7.86096C19.0684 8.79802 20.2304 9.47877 21.506 9.838" stroke="#111111" stroke-width="1.5" stroke-miterlimit="10" stroke-linecap="round" stroke-linejoin="round"/>
</svg>
