<svg width="108" height="36" viewBox="0 0 108 36" fill="none" xmlns="http://www.w3.org/2000/svg">
<g clip-path="url(#clip0_2170_13246)">
<path d="M14.9999 23.7857C14.1226 23.7896 13.2569 23.5771 12.4738 23.1656C11.6907 22.754 11.0125 22.1553 10.4949 21.4184L6.88721 23.574C7.02449 23.7386 7.18701 23.8785 7.36824 23.9878L13.7881 27.8371C14.1633 28.0365 14.5786 28.1404 14.9999 28.1404C15.4212 28.1404 15.8365 28.0365 16.2117 27.8371L22.6315 23.9878C22.8128 23.8785 22.9753 23.7386 23.1126 23.574L19.5141 21.3799C18.9996 22.1252 18.3217 22.7322 17.5366 23.1506C16.7516 23.569 15.882 23.7867 14.9999 23.7857Z" fill="#212121" fill-opacity="0.07"/>
<path d="M9.35236 17.9777C9.35565 16.6091 9.88757 15.2897 10.8464 14.2716C11.8053 13.2535 13.1239 12.6081 14.5502 12.4589V8.31055C14.3338 8.35345 14.1256 8.42791 13.933 8.5313L7.24045 12.2105C6.87669 12.4426 6.57422 12.7519 6.35675 13.1142C6.13924 13.4764 6.01264 13.8817 5.98682 14.2985V21.6569C5.98979 21.8692 6.02549 22.08 6.09287 22.2824L9.85386 20.2128C9.52498 19.5093 9.35416 18.748 9.35236 17.9777Z" fill="#212121" fill-opacity="0.07"/>
<path d="M22.8264 12.208L16.4861 8.53117C16.3036 8.42782 16.1064 8.35341 15.9014 8.31055V12.4469C16.7627 12.5451 17.5891 12.8454 18.314 13.3237C19.0389 13.8019 19.6421 14.4448 20.075 15.2004C20.5078 15.9561 20.7582 16.8034 20.8061 17.6743C20.854 18.5451 20.6979 19.4151 20.3505 20.2142L23.9136 22.2824C23.9774 22.0801 24.0112 21.8695 24.014 21.6573V14.3037C23.991 13.8857 23.8717 13.4788 23.6656 13.1151C23.4594 12.7514 23.1722 12.4408 22.8264 12.208Z" fill="#212121" fill-opacity="0.07"/>
<path d="M27.4448 8.52219L16.9781 2.46887C16.3643 2.16054 15.687 2 15.0002 2C14.3134 2 13.6362 2.16054 13.0223 2.46887L2.55551 8.52219C1.98099 8.89699 1.50266 9.40182 1.15905 9.9959C0.815474 10.59 0.616307 11.2566 0.577637 11.9419V24.0485C0.615586 24.7354 0.814392 25.4036 1.15796 25.9993C1.50154 26.5951 1.98027 27.1015 2.55551 27.4778L13.0223 33.5313C13.6362 33.8395 14.3134 34 15.0002 34C15.687 34 16.3643 33.8395 16.9781 33.5313L27.4448 27.4778C28.0201 27.1015 28.4988 26.5951 28.8424 25.9993C29.186 25.4036 29.3848 24.7354 29.4227 24.0485V11.9419C29.384 11.2566 29.1849 10.59 28.8413 9.9959C28.4977 9.40182 28.0194 8.89699 27.4448 8.52219ZM26.101 22.656C26.0702 23.1836 25.9164 23.6967 25.6518 24.154C25.3872 24.6114 25.0192 25.0002 24.5773 25.2896L16.5143 29.9503C16.0433 30.1884 15.5231 30.3125 14.9954 30.3125C14.4678 30.3125 13.9475 30.1884 13.4766 29.9503L5.42302 25.2896C4.98111 25.0002 4.61311 24.6114 4.34854 24.154C4.08394 23.6967 3.93011 23.1836 3.89937 22.656V13.344C3.93011 12.8164 4.08394 12.3033 4.34854 11.846C4.61311 11.3886 4.98111 10.9997 5.42302 10.7104L13.4671 6.04971C13.938 5.8116 14.4583 5.68753 14.986 5.68753C15.5136 5.68753 16.0339 5.8116 16.5049 6.04971L24.5679 10.7104C25.0115 10.9987 25.3814 11.3871 25.6477 11.8446C25.9139 12.3019 26.0692 12.8155 26.101 13.344V22.656Z" fill="#212121"/>
<path d="M10.9443 17.9999C10.9443 18.7576 11.1822 19.4983 11.6279 20.1283C12.0736 20.7583 12.7072 21.2493 13.4484 21.5393C14.1896 21.8292 15.0052 21.9051 15.7921 21.7573C16.5789 21.6095 17.3017 21.2446 17.8689 20.7088C18.4362 20.1731 18.8226 19.4905 18.9791 18.7473C19.1356 18.0042 19.0553 17.2339 18.7482 16.5339C18.4412 15.8338 17.9214 15.2355 17.2543 14.8146C16.5872 14.3936 15.8029 14.1689 15.0007 14.1689C13.9249 14.1689 12.8931 14.5726 12.1324 15.291C11.3717 16.0095 10.9443 16.9839 10.9443 17.9999Z" fill="#212121"/>
<path d="M50.9709 27.392C49.3562 27.392 47.9282 27.0373 46.6869 26.328C45.4549 25.6187 44.4889 24.5593 43.7889 23.15C43.0889 21.7407 42.7389 19.9907 42.7389 17.9C42.7389 15.772 43.0889 14.0127 43.7889 12.622C44.4889 11.222 45.4549 10.1813 46.6869 9.5C47.9282 8.80933 49.3562 8.464 50.9709 8.464C52.5949 8.464 54.0275 8.81867 55.2689 9.528C56.5102 10.228 57.4809 11.278 58.1809 12.678C58.8809 14.078 59.2309 15.8187 59.2309 17.9C59.2309 20.0187 58.8809 21.7827 58.1809 23.192C57.4809 24.6013 56.5102 25.656 55.2689 26.356C54.0275 27.0467 52.5949 27.392 50.9709 27.392ZM50.9709 24.396C52.4549 24.396 53.6309 23.836 54.4989 22.716C55.3762 21.596 55.8149 19.9813 55.8149 17.872C55.8149 15.8373 55.3762 14.2553 54.4989 13.126C53.6309 11.9967 52.4549 11.432 50.9709 11.432C49.5149 11.432 48.3482 12.0013 47.4709 13.14C46.5935 14.2693 46.1549 15.856 46.1549 17.9C46.1549 20 46.5935 21.61 47.4709 22.73C48.3482 23.8407 49.5149 24.396 50.9709 24.396ZM63.1401 27V7.792H66.4441V27H63.1401ZM65.9961 18.572L71.8201 13.42H76.3001L65.9961 21.988V18.572ZM72.6041 27L66.5281 18.348L69.6641 17.592L76.6361 27H72.6041ZM84.7784 27.392C83.6211 27.392 82.5618 27.0933 81.6004 26.496C80.6391 25.8987 79.8691 25.0633 79.2904 23.99C78.7118 22.9073 78.4224 21.6427 78.4224 20.196C78.4224 18.7027 78.7071 17.4193 79.2764 16.346C79.8551 15.2727 80.6251 14.4513 81.5864 13.882C82.5478 13.3127 83.6118 13.028 84.7784 13.028C85.8611 13.028 86.7944 13.2473 87.5784 13.686C88.3718 14.1153 89.0064 14.7033 89.4824 15.45C89.9678 16.1873 90.2944 17.0227 90.4624 17.956C90.6304 18.8893 90.6398 19.8507 90.4904 20.84H81.0544V19.048H88.1524L87.5084 19.468C87.5364 19.0293 87.5131 18.586 87.4384 18.138C87.3731 17.69 87.2424 17.2793 87.0464 16.906C86.8504 16.5327 86.5704 16.234 86.2064 16.01C85.8518 15.7767 85.3944 15.66 84.8344 15.66C84.1624 15.66 83.5931 15.828 83.1264 16.164C82.6598 16.5 82.3051 16.9573 82.0624 17.536C81.8198 18.1147 81.6984 18.768 81.6984 19.496V20.812C81.6984 21.5773 81.8104 22.254 82.0344 22.842C82.2678 23.43 82.6084 23.892 83.0564 24.228C83.5138 24.564 84.0878 24.732 84.7784 24.732C85.4224 24.732 85.9638 24.5827 86.4024 24.284C86.8411 23.9853 87.1211 23.5373 87.2424 22.94H90.5744C90.4344 23.8173 90.1031 24.592 89.5804 25.264C89.0671 25.9267 88.3998 26.4493 87.5784 26.832C86.7571 27.2053 85.8238 27.392 84.7784 27.392ZM99.6261 27.392C98.4688 27.392 97.4094 27.0933 96.4481 26.496C95.4868 25.8987 94.7168 25.0633 94.1381 23.99C93.5594 22.9073 93.2701 21.6427 93.2701 20.196C93.2701 18.7027 93.5548 17.4193 94.1241 16.346C94.7028 15.2727 95.4728 14.4513 96.4341 13.882C97.3954 13.3127 98.4594 13.028 99.6261 13.028C100.709 13.028 101.642 13.2473 102.426 13.686C103.219 14.1153 103.854 14.7033 104.33 15.45C104.815 16.1873 105.142 17.0227 105.31 17.956C105.478 18.8893 105.487 19.8507 105.338 20.84H95.9021V19.048H103L102.356 19.468C102.384 19.0293 102.361 18.586 102.286 18.138C102.221 17.69 102.09 17.2793 101.894 16.906C101.698 16.5327 101.418 16.234 101.054 16.01C100.699 15.7767 100.242 15.66 99.6821 15.66C99.0101 15.66 98.4408 15.828 97.9741 16.164C97.5074 16.5 97.1528 16.9573 96.9101 17.536C96.6674 18.1147 96.5461 18.768 96.5461 19.496V20.812C96.5461 21.5773 96.6581 22.254 96.8821 22.842C97.1154 23.43 97.4561 23.892 97.9041 24.228C98.3614 24.564 98.9354 24.732 99.6261 24.732C100.27 24.732 100.811 24.5827 101.25 24.284C101.689 23.9853 101.969 23.5373 102.09 22.94H105.422C105.282 23.8173 104.951 24.592 104.428 25.264C103.915 25.9267 103.247 26.4493 102.426 26.832C101.605 27.2053 100.671 27.392 99.6261 27.392Z" fill="#212121"/>
</g>
<defs>
<clipPath id="clip0_2170_13246">
<rect width="106.845" height="36" fill="white" transform="translate(0.577637)"/>
</clipPath>
</defs>
</svg>
