<svg width="24" height="24" viewBox="0 0 24 24" fill="none" xmlns="http://www.w3.org/2000/svg">
<path d="M17.7602 8.87988C17.7602 10.4075 17.1534 11.8726 16.0732 12.9528C14.993 14.033 13.5279 14.6399 12.0002 14.6399C10.4726 14.6399 9.00753 14.033 7.92733 12.9528C6.84712 11.8726 6.24023 10.4075 6.24023 8.87988" stroke="#212121" stroke-width="1.5" stroke-linecap="round" stroke-linejoin="round"/>
<path d="M12 14.6309V20.1989" stroke="#212121" stroke-width="1.5" stroke-linecap="round" stroke-linejoin="round"/>
<path d="M6.24023 21.1492C9.97405 19.8721 14.0264 19.8721 17.7602 21.1492" stroke="#212121" stroke-width="1.5" stroke-linecap="round" stroke-linejoin="round"/>
<path d="M6.24023 8.87978V4.54056C6.24023 3.85822 6.51132 3.20384 6.99381 2.72134C7.4763 2.23885 8.13073 1.96777 8.81308 1.96777H15.149C15.8314 1.96777 16.4858 2.23885 16.9682 2.72134C17.4507 3.20384 17.7218 3.85822 17.7218 4.54056V8.87978" stroke="#212121" stroke-width="1.5" stroke-linecap="round" stroke-linejoin="round"/>
<path d="M17.7598 4.44434C18.5235 4.44434 19.2561 4.74775 19.7962 5.28786C20.3363 5.82796 20.6398 6.56052 20.6398 7.32434C20.6398 8.08816 20.3363 8.82072 19.7962 9.36082C19.2561 9.90098 18.5235 10.2043 17.7598 10.2043" stroke="#212121" stroke-width="1.5" stroke-linecap="round" stroke-linejoin="round"/>
<path d="M6.24035 10.2053C5.47653 10.2053 4.74403 9.90195 4.20392 9.3618C3.66382 8.82169 3.36035 8.08914 3.36035 7.32531C3.36035 6.5615 3.66382 5.82894 4.20392 5.28884C4.74403 4.74873 5.47653 4.44531 6.24035 4.44531" stroke="#212121" stroke-width="1.5" stroke-linecap="round" stroke-linejoin="round"/>
</svg>
