<svg width="24" height="24" viewBox="0 0 24 24" fill="none" xmlns="http://www.w3.org/2000/svg">
<path d="M2 11.7621C2 8.10301 2 6.27347 3.13673 5.13673C4.27347 4 6.10301 4 9.76211 4H13.6432C17.3022 4 19.1318 4 20.2685 5.13673C21.4053 6.27347 21.4053 8.10301 21.4053 11.7621C21.4053 15.4212 21.4053 17.2508 20.2685 18.3875C19.1318 19.5242 17.3022 19.5242 13.6432 19.5242H9.76211C6.10301 19.5242 4.27347 19.5242 3.13673 18.3875C2 17.2508 2 15.4212 2 11.7621Z" stroke="#212121" stroke-width="1.5"/>
<path d="M9.7624 15.6436H5.88135" stroke="#212121" stroke-width="1.5" stroke-linecap="round"/>
<path d="M13.6429 15.6436H12.1875" stroke="#212121" stroke-width="1.5" stroke-linecap="round"/>
<path d="M2 9.82129H21.4053" stroke="#212121" stroke-width="1.5" stroke-linecap="round"/>
</svg>
