<svg width="18" height="19" viewBox="0 0 18 19" fill="none" xmlns="http://www.w3.org/2000/svg">
<g clip-path="url(#clip0_4416_610)">
<path d="M4.46484 15.3576C4.46484 12.7353 7.58414 13.26 7.58414 12.2112C7.61901 11.8388 7.51807 11.4663 7.29994 11.1624C7.05118 10.9266 6.85522 10.6407 6.72499 10.3236C6.59475 10.0065 6.5332 9.66537 6.54438 9.32275C6.51053 8.73516 6.70999 8.15796 7.0994 7.71663C7.4888 7.2753 8.03668 7.00552 8.62391 6.96594C9.21114 7.00552 9.75902 7.2753 10.1484 7.71663C10.5378 8.15796 10.7373 8.73516 10.7034 9.32275C10.7159 9.66638 10.6539 10.0086 10.5217 10.3261C10.3895 10.6435 10.1902 10.9286 9.93748 11.1617C9.72813 11.4696 9.63142 11.8403 9.66368 12.2112C9.66368 13.26 12.783 12.736 12.783 15.3582C12.783 15.3582 11.9546 15.9779 8.62391 15.9779C5.29319 15.9779 4.46484 15.3576 4.46484 15.3576Z" stroke="#1A202C" stroke-width="1.5" stroke-miterlimit="10"/>
<path d="M4.1096 12.4884C3.71518 12.4704 3.3672 12.4434 3.06151 12.4094C2.34399 12.3952 1.63908 12.2181 1 11.8916C1 9.26932 4.1193 9.79405 4.1193 8.74528C4.15416 8.37285 4.05323 8.00037 3.8351 7.6965C3.58633 7.46064 3.39038 7.17473 3.26014 6.85763C3.12991 6.54053 3.06835 6.19943 3.07953 5.8568C3.04569 5.26921 3.24515 4.69201 3.63455 4.25069C4.02396 3.80936 4.57183 3.53958 5.15907 3.5C5.7463 3.53958 6.29417 3.80936 6.68358 4.25069C7.07299 4.69201 7.27245 5.26921 7.2386 5.8568" stroke="#1A202C" stroke-width="1.5" stroke-miterlimit="10"/>
<path d="M13.1405 12.4884C13.5349 12.4704 13.8829 12.4434 14.1886 12.4094C14.9061 12.3952 15.611 12.2181 16.2501 11.8916C16.2501 9.26932 13.1308 9.79405 13.1308 8.74528C13.0959 8.37285 13.1969 8.00037 13.415 7.6965C13.6638 7.46064 13.8597 7.17473 13.99 6.85763C14.1202 6.54053 14.1818 6.19943 14.1706 5.8568C14.2044 5.26921 14.005 4.69201 13.6156 4.25069C13.2262 3.80936 12.6783 3.53958 12.091 3.5C11.5038 3.53958 10.9559 3.80936 10.5665 4.25069C10.1771 4.69201 9.97766 5.26921 10.0115 5.8568" stroke="#1A202C" stroke-width="1.5" stroke-miterlimit="10"/>
</g>
<defs>
<clipPath id="clip0_4416_610">
<rect width="18" height="18" fill="white" transform="translate(0 0.5)"/>
</clipPath>
</defs>
</svg>
