<svg width="24" height="24" viewBox="0 0 24 24" fill="none" xmlns="http://www.w3.org/2000/svg">
<path d="M11.6376 11.0096C13.5733 11.0096 15.1425 9.44048 15.1425 7.50482C15.1425 5.56916 13.5733 4 11.6376 4C9.70197 4 8.13281 5.56916 8.13281 7.50482C8.13281 9.44048 9.70197 11.0096 11.6376 11.0096Z" stroke="#212121" stroke-width="1.8"/>
<path d="M16.8955 10.133C18.3473 10.133 19.5241 9.15225 19.5241 7.94247C19.5241 6.73268 18.3473 5.75195 16.8955 5.75195" stroke="#212121" stroke-width="1.8" stroke-linecap="round"/>
<path d="M6.38057 10.133C4.92883 10.133 3.75195 9.15225 3.75195 7.94247C3.75195 6.73268 4.92883 5.75195 6.38057 5.75195" stroke="#212121" stroke-width="1.8" stroke-linecap="round"/>
<path d="M11.6381 20.6483C14.5416 20.6483 16.8953 19.0791 16.8953 17.1435C16.8953 15.2078 14.5416 13.6387 11.6381 13.6387C8.7346 13.6387 6.38086 15.2078 6.38086 17.1435C6.38086 19.0791 8.7346 20.6483 11.6381 20.6483Z" stroke="#212121" stroke-width="1.8"/>
<path d="M18.6475 18.8957C20.1845 18.5586 21.2761 17.705 21.2761 16.7052C21.2761 15.7053 20.1845 14.8517 18.6475 14.5146" stroke="#212121" stroke-width="1.8" stroke-linecap="round"/>
<path d="M4.62861 18.8957C3.09153 18.5586 2 17.705 2 16.7052C2 15.7053 3.09153 14.8517 4.62861 14.5146" stroke="#212121" stroke-width="1.8" stroke-linecap="round"/>
</svg>
